<?xml version="1.0" standalone="no"?><?xml-stylesheet type="text/css" href="https://wps.processon.com/themes/default/wps/mind/icons/icons.css" ?><!DOCTYPE svg PUBLIC "-//W3C//DTD SVG 1.1//EN" "http://www.w3.org/Graphics/SVG/1.1/DTD/svg11.dtd"><svg id="SvgjsSvg4044" width="600.0000000000001" height="530.4805891731708" xmlns="http://www.w3.org/2000/svg" version="1.1" xmlns:xlink="http://www.w3.org/1999/xlink" xmlns:svgjs="http://svgjs.com/svgjs"><defs id="SvgjsDefs4045"><pattern patternUnits="userSpaceOnUse" id="pattern_mark_0" width="300" height="300"><text x="150" y="100" fill="rgba(229,229,229,0.8)" font-size="18" transform="rotate(-45, 150, 150)" style="dominant-baseline: middle; text-anchor: middle;"></text></pattern><pattern patternUnits="userSpaceOnUse" id="pattern_mark_1" width="300" height="300"><text x="150" y="200" fill="rgba(229,229,229,0.8)" font-size="18" transform="rotate(-45, 150, 150)" style="dominant-baseline: middle; text-anchor: middle;"></text></pattern><marker id="SvgjsMarker4207" markerWidth="13" markerHeight="9" refX="3.5" refY="4.5" viewBox="0 0 13 9" orient="auto" markerUnits="userSpaceOnUse" stroke-dasharray="0,0"><path id="SvgjsPath4208" d="M13,0 L0,4.5 L13,9 L13,0" fill="#323232" stroke="#323232" stroke-width="1"></path></marker><marker id="SvgjsMarker4209" markerWidth="13" markerHeight="9" refX="9.5" refY="4.5" viewBox="0 0 13 9" orient="auto" markerUnits="userSpaceOnUse" stroke-dasharray="0,0"><path id="SvgjsPath4210" d="M0,0 L13,4.5 L0,9 L0,0" fill="#323232" stroke="#323232" stroke-width="1"></path></marker></defs><rect id="svgbackgroundid" width="600.0000000000001" height="530.4805891731708" fill="transparent"></rect><rect id="SvgjsRect4047" width="600.0000000000001" height="530.4805891731708" fill="url(#pattern_mark_0)"></rect><rect id="SvgjsRect4048" width="600.0000000000001" height="530.4805891731708" fill="url(#pattern_mark_1)"></rect><g id="SvgjsG4049" transform="translate(25.000000000000085,257.78069174595913)"><path id="SvgjsPath4050" d="M 0 4Q 0 0 4 0L 546 0Q 550 0 550 4L 550 45.733Q 550 49.733 546 49.733L 4 49.733Q 0 49.733 0 45.733Z" stroke="none" fill-opacity="1" fill="#99ff99"></path><g id="SvgjsG4051"><text id="SvgjsText4052" font-family="&quot;Microsoft YaHei&quot;, 微软雅黑, Arial" text-anchor="middle" font-size="13px" width="530px" fill="#000000" font-weight="400" align="middle" lineHeight="125%" anchor="middle" family="&quot;Microsoft YaHei&quot;, 微软雅黑, Arial" size="13px" weight="400" font-style="" opacity="1" y="14.241499999999998" transform="rotate(0)"><tspan id="SvgjsTspan4053" dy="16.25" x="275"><tspan id="SvgjsTspan4054" style="">Arduino APIs</tspan></tspan></text></g></g><g id="SvgjsG4055" transform="translate(25.00000000000003,314.84637172753656)"><path id="SvgjsPath4056" d="M 0 4Q 0 0 4 0L 546 0Q 550 0 550 4L 550 45.733Q 550 49.733 546 49.733L 4 49.733Q 0 49.733 0 45.733Z" stroke="none" fill-opacity="1" fill="#66ffb3"></path><g id="SvgjsG4057"><text id="SvgjsText4058" font-family="&quot;Microsoft YaHei&quot;, 微软雅黑, Arial" text-anchor="middle" font-size="13px" width="530px" fill="#000000" font-weight="400" align="middle" lineHeight="125%" anchor="middle" family="&quot;Microsoft YaHei&quot;, 微软雅黑, Arial" size="13px" weight="400" font-style="" opacity="1" y="14.241499999999998" transform="rotate(0)"><tspan id="SvgjsTspan4059" dy="16.25" x="275"><tspan id="SvgjsTspan4060" style="">ESP-IDF 操作系统</tspan></tspan></text></g></g><g id="SvgjsG4061" transform="translate(25.00000000000003,371.91205170911394)"><path id="SvgjsPath4062" d="M 0 4Q 0 0 4 0L 546 0Q 550 0 550 4L 550 46.253Q 550 50.253 546 50.253L 4 50.253Q 0 50.253 0 46.253Z" stroke="none" fill-opacity="1" fill="#99ccff"></path><g id="SvgjsG4063"><text id="SvgjsText4064" font-family="&quot;Microsoft YaHei&quot;, 微软雅黑, Arial" text-anchor="start" font-size="13px" width="530px" fill="#000000" font-weight="400" align="middle" lineHeight="125%" anchor="start" family="&quot;Microsoft YaHei&quot;, 微软雅黑, Arial" size="13px" weight="400" font-style="" opacity="1" y="14.5015" transform="rotate(0)"><tspan id="SvgjsTspan4065" dy="16.25" x="10"><tspan id="SvgjsTspan4066" style="">           硬件平台</tspan></tspan></text></g></g><g id="SvgjsG4067" transform="translate(25.000000000000057,25)"><path id="SvgjsPath4068" d="M 0 4Q 0 0 4 0L 546 0Q 550 0 550 4L 550 221.448Q 550 225.448 546 225.448L 4 225.448Q 0 225.448 0 221.448Z" stroke="none" fill-opacity="1" fill="#fffd99"></path><g id="SvgjsG4069"><text id="SvgjsText4070" font-family="&quot;Microsoft YaHei&quot;, 微软雅黑, Arial" text-anchor="start" font-size="13px" width="530px" fill="#000000" font-weight="400" align="middle" lineHeight="125%" anchor="start" family="&quot;Microsoft YaHei&quot;, 微软雅黑, Arial" size="13px" weight="400" font-style="" opacity="1" y="102.099" transform="rotate(0)"><tspan id="SvgjsTspan4071" dy="16.25" x="10"><tspan id="SvgjsTspan4072" style="">应用层</tspan></tspan></text></g></g><g id="SvgjsG4073" transform="translate(83.66887559868736,36.11099769258334)"><path id="SvgjsPath4074" d="M 0 4Q 0 0 4 0L 150 0Q 154 0 154 4L 154 199.664Q 154 203.664 150 203.664L 4 203.664Q 0 203.664 0 199.664Z" stroke-dasharray="7.5,3" stroke="rgba(33,41,48,1)" stroke-width="1.5" fill-opacity="1" fill="#ffffff"></path><g id="SvgjsG4075"><text id="SvgjsText4076" font-family="&quot;Microsoft YaHei&quot;, 微软雅黑, Arial" text-anchor="middle" font-size="13px" width="134px" fill="#000000" font-weight="400" align="top" lineHeight="125%" anchor="middle" family="&quot;Microsoft YaHei&quot;, 微软雅黑, Arial" size="13px" weight="400" font-style="" opacity="1" y="-2.625" transform="rotate(0)"><tspan id="SvgjsTspan4077" dy="16.25" x="77"><tspan id="SvgjsTspan4078" style="">通信功能</tspan></tspan></text></g></g><g id="SvgjsG4079" transform="translate(98.98391825173384,56.74120543677628)"><path id="SvgjsPath4080" d="M 0 4Q 0 0 4 0L 121 0Q 125 0 125 4L 125 26Q 125 30 121 30L 4 30Q 0 30 0 26Z" stroke="rgba(33,41,48,1)" stroke-width="1.5" fill-opacity="1" fill="#ffffff"></path><g id="SvgjsG4081"><text id="SvgjsText4082" font-family="&quot;Microsoft YaHei&quot;, 微软雅黑, Arial" text-anchor="middle" font-size="13px" width="105px" fill="#000000" font-weight="400" align="middle" lineHeight="125%" anchor="middle" family="&quot;Microsoft YaHei&quot;, 微软雅黑, Arial" size="13px" weight="400" font-style="" opacity="1" y="4.375" transform="rotate(0)"><tspan id="SvgjsTspan4083" dy="16.25" x="62.5"><tspan id="SvgjsTspan4084" style="">Wi-Fi嗅探</tspan></tspan></text></g></g><g id="SvgjsG4085" transform="translate(98.98391825173384,102.32647412746513)"><path id="SvgjsPath4086" d="M 0 4Q 0 0 4 0L 121 0Q 125 0 125 4L 125 26Q 125 30 121 30L 4 30Q 0 30 0 26Z" stroke="rgba(33,41,48,1)" stroke-width="1.5" fill-opacity="1" fill="#ffffff"></path><g id="SvgjsG4087"><text id="SvgjsText4088" font-family="&quot;Microsoft YaHei&quot;, 微软雅黑, Arial" text-anchor="middle" font-size="13px" width="105px" fill="#000000" font-weight="400" align="middle" lineHeight="125%" anchor="middle" family="&quot;Microsoft YaHei&quot;, 微软雅黑, Arial" size="13px" weight="400" font-style="" opacity="1" y="4.375" transform="rotate(0)"><tspan id="SvgjsTspan4089" dy="16.25" x="62.5"><tspan id="SvgjsTspan4090" style="">AP连接</tspan></tspan></text></g></g><g id="SvgjsG4091" transform="translate(98.98391825173384,147.99694625819296)"><path id="SvgjsPath4092" d="M 0 4Q 0 0 4 0L 121 0Q 125 0 125 4L 125 26Q 125 30 121 30L 4 30Q 0 30 0 26Z" stroke="rgba(33,41,48,1)" stroke-width="1.5" fill-opacity="1" fill="#ffffff"></path><g id="SvgjsG4093"><text id="SvgjsText4094" font-family="&quot;Microsoft YaHei&quot;, 微软雅黑, Arial" text-anchor="middle" font-size="13px" width="105px" fill="#000000" font-weight="400" align="middle" lineHeight="125%" anchor="middle" family="&quot;Microsoft YaHei&quot;, 微软雅黑, Arial" size="13px" weight="400" font-style="" opacity="1" y="4.375" transform="rotate(0)"><tspan id="SvgjsTspan4095" dy="16.25" x="62.5"><tspan id="SvgjsTspan4096" style="">智能组网</tspan></tspan></text></g></g><g id="SvgjsG4097" transform="translate(98.98391825173384,194.19860371675628)"><path id="SvgjsPath4098" d="M 0 4Q 0 0 4 0L 121 0Q 125 0 125 4L 125 26Q 125 30 121 30L 4 30Q 0 30 0 26Z" stroke="rgba(33,41,48,1)" stroke-width="1.5" fill-opacity="1" fill="#ffffff"></path><g id="SvgjsG4099"><text id="SvgjsText4100" font-family="&quot;Microsoft YaHei&quot;, 微软雅黑, Arial" text-anchor="middle" font-size="13px" width="105px" fill="#000000" font-weight="400" align="middle" lineHeight="125%" anchor="middle" family="&quot;Microsoft YaHei&quot;, 微软雅黑, Arial" size="13px" weight="400" font-style="" opacity="1" y="4.375" transform="rotate(0)"><tspan id="SvgjsTspan4101" dy="16.25" x="62.5"><tspan id="SvgjsTspan4102" style="">蓝牙Beacon</tspan></tspan></text></g></g><g id="SvgjsG4103" transform="translate(410.6688755986878,36.49694625819319)"><path id="SvgjsPath4104" d="M 0 4Q 0 0 4 0L 150 0Q 154 0 154 4L 154 199.664Q 154 203.664 150 203.664L 4 203.664Q 0 203.664 0 199.664Z" stroke-dasharray="7.5,3" stroke="rgba(33,41,48,1)" stroke-width="1.5" fill-opacity="1" fill="#ffffff"></path><g id="SvgjsG4105"><text id="SvgjsText4106" font-family="&quot;Microsoft YaHei&quot;, 微软雅黑, Arial" text-anchor="middle" font-size="13px" width="134px" fill="#000000" font-weight="400" align="top" lineHeight="125%" anchor="middle" family="&quot;Microsoft YaHei&quot;, 微软雅黑, Arial" size="13px" weight="400" font-style="" opacity="1" y="-2.625" transform="rotate(0)"><tspan id="SvgjsTspan4107" dy="16.25" x="77"><tspan id="SvgjsTspan4108" style="">VL530LX功能</tspan></tspan></text></g></g><g id="SvgjsG4109" transform="translate(247.16887559868758,36.49694625819319)"><path id="SvgjsPath4110" d="M 0 4Q 0 0 4 0L 150 0Q 154 0 154 4L 154 199.664Q 154 203.664 150 203.664L 4 203.664Q 0 203.664 0 199.664Z" stroke-dasharray="7.5,3" stroke="rgba(33,41,48,1)" stroke-width="1.5" fill-opacity="1" fill="#ffffff"></path><g id="SvgjsG4111"><text id="SvgjsText4112" font-family="&quot;Microsoft YaHei&quot;, 微软雅黑, Arial" text-anchor="middle" font-size="13px" width="134px" fill="#000000" font-weight="400" align="top" lineHeight="125%" anchor="middle" family="&quot;Microsoft YaHei&quot;, 微软雅黑, Arial" size="13px" weight="400" font-style="" opacity="1" y="-2.625" transform="rotate(0)"><tspan id="SvgjsTspan4113" dy="16.25" x="77"><tspan id="SvgjsTspan4114" style="">第三方库</tspan></tspan></text></g></g><g id="SvgjsG4115" transform="translate(261.66887559868746,56.74120543677628)"><path id="SvgjsPath4116" d="M 0 4Q 0 0 4 0L 121 0Q 125 0 125 4L 125 26Q 125 30 121 30L 4 30Q 0 30 0 26Z" stroke="rgba(33,41,48,1)" stroke-width="1.5" fill-opacity="1" fill="#ffffff"></path><g id="SvgjsG4117"><text id="SvgjsText4118" font-family="&quot;Microsoft YaHei&quot;, 微软雅黑, Arial" text-anchor="middle" font-size="13px" width="105px" fill="#000000" font-weight="400" align="middle" lineHeight="125%" anchor="middle" family="&quot;Microsoft YaHei&quot;, 微软雅黑, Arial" size="13px" weight="400" font-style="" opacity="1" y="4.375" transform="rotate(0)"><tspan id="SvgjsTspan4119" dy="16.25" x="62.5"><tspan id="SvgjsTspan4120" style="">ArduinoJson</tspan></tspan></text></g></g><g id="SvgjsG4121" transform="translate(261.66887559868746,102.32647412746513)"><path id="SvgjsPath4122" d="M 0 4Q 0 0 4 0L 121 0Q 125 0 125 4L 125 26Q 125 30 121 30L 4 30Q 0 30 0 26Z" stroke="rgba(33,41,48,1)" stroke-width="1.5" fill-opacity="1" fill="#ffffff"></path><g id="SvgjsG4123"><text id="SvgjsText4124" font-family="&quot;Microsoft YaHei&quot;, 微软雅黑, Arial" text-anchor="middle" font-size="13px" width="105px" fill="#000000" font-weight="400" align="middle" lineHeight="125%" anchor="middle" family="&quot;Microsoft YaHei&quot;, 微软雅黑, Arial" size="13px" weight="400" font-style="" opacity="1" y="4.375" transform="rotate(0)"><tspan id="SvgjsTspan4125" dy="16.25" x="62.5"><tspan id="SvgjsTspan4126" style="">ArduinoLog</tspan></tspan></text></g></g><g id="SvgjsG4127" transform="translate(261.66887559868746,147.99694625819296)"><path id="SvgjsPath4128" d="M 0 4Q 0 0 4 0L 121 0Q 125 0 125 4L 125 26Q 125 30 121 30L 4 30Q 0 30 0 26Z" stroke="rgba(33,41,48,1)" stroke-width="1.5" fill-opacity="1" fill="#ffffff"></path><g id="SvgjsG4129"><text id="SvgjsText4130" font-family="&quot;Microsoft YaHei&quot;, 微软雅黑, Arial" text-anchor="middle" font-size="13px" width="105px" fill="#000000" font-weight="400" align="middle" lineHeight="125%" anchor="middle" family="&quot;Microsoft YaHei&quot;, 微软雅黑, Arial" size="13px" weight="400" font-style="" opacity="1" y="4.375" transform="rotate(0)"><tspan id="SvgjsTspan4131" dy="16.25" x="62.5"><tspan id="SvgjsTspan4132" style="">Preferences</tspan></tspan></text></g></g><g id="SvgjsG4133" transform="translate(261.66887559868746,194.19860371675628)"><path id="SvgjsPath4134" d="M 0 4Q 0 0 4 0L 121 0Q 125 0 125 4L 125 26Q 125 30 121 30L 4 30Q 0 30 0 26Z" stroke="rgba(33,41,48,1)" stroke-width="1.5" fill-opacity="1" fill="#ffffff"></path><g id="SvgjsG4135"><text id="SvgjsText4136" font-family="&quot;Microsoft YaHei&quot;, 微软雅黑, Arial" text-anchor="middle" font-size="13px" width="105px" fill="#000000" font-weight="400" align="middle" lineHeight="125%" anchor="middle" family="&quot;Microsoft YaHei&quot;, 微软雅黑, Arial" size="13px" weight="400" font-style="" opacity="1" y="4.375" transform="rotate(0)"><tspan id="SvgjsTspan4137" dy="16.25" x="62.5"><tspan id="SvgjsTspan4138" style="">PubSubClient</tspan></tspan></text></g></g><g id="SvgjsG4139" transform="translate(423.7641380319541,56.74120543677628)"><path id="SvgjsPath4140" d="M 0 4Q 0 0 4 0L 121 0Q 125 0 125 4L 125 26Q 125 30 121 30L 4 30Q 0 30 0 26Z" stroke="rgba(33,41,48,1)" stroke-width="1.5" fill-opacity="1" fill="#ffffff"></path><g id="SvgjsG4141"><text id="SvgjsText4142" font-family="&quot;Microsoft YaHei&quot;, 微软雅黑, Arial" text-anchor="middle" font-size="13px" width="105px" fill="#000000" font-weight="400" align="middle" lineHeight="125%" anchor="middle" family="&quot;Microsoft YaHei&quot;, 微软雅黑, Arial" size="13px" weight="400" font-style="" opacity="1" y="4.375" transform="rotate(0)"><tspan id="SvgjsTspan4143" dy="16.25" x="62.5"><tspan id="SvgjsTspan4144" style="">车位占用检测</tspan></tspan></text></g></g><g id="SvgjsG4145" transform="translate(423.7641380319541,102.32647412746513)"><path id="SvgjsPath4146" d="M 0 4Q 0 0 4 0L 121 0Q 125 0 125 4L 125 26Q 125 30 121 30L 4 30Q 0 30 0 26Z" stroke="rgba(33,41,48,1)" stroke-width="1.5" fill-opacity="1" fill="#ffffff"></path><g id="SvgjsG4147"><text id="SvgjsText4148" font-family="&quot;Microsoft YaHei&quot;, 微软雅黑, Arial" text-anchor="middle" font-size="13px" width="105px" fill="#000000" font-weight="400" align="middle" lineHeight="125%" anchor="middle" family="&quot;Microsoft YaHei&quot;, 微软雅黑, Arial" size="13px" weight="400" font-style="" opacity="1" y="4.375" transform="rotate(0)"><tspan id="SvgjsTspan4149" dy="16.25" x="62.5"><tspan id="SvgjsTspan4150" style="">车位占用时长统计</tspan></tspan></text></g></g><g id="SvgjsG4151" transform="translate(423.7641380319541,147.99694625819296)"><path id="SvgjsPath4152" d="M 0 4Q 0 0 4 0L 121 0Q 125 0 125 4L 125 26Q 125 30 121 30L 4 30Q 0 30 0 26Z" stroke="rgba(33,41,48,1)" stroke-width="1.5" fill-opacity="1" fill="#ffffff"></path><g id="SvgjsG4153"><text id="SvgjsText4154" font-family="&quot;Microsoft YaHei&quot;, 微软雅黑, Arial" text-anchor="middle" font-size="13px" width="105px" fill="#000000" font-weight="400" align="middle" lineHeight="125%" anchor="middle" family="&quot;Microsoft YaHei&quot;, 微软雅黑, Arial" size="13px" weight="400" font-style="" opacity="1" y="4.375" transform="rotate(0)"><tspan id="SvgjsTspan4155" dy="16.25" x="62.5"><tspan id="SvgjsTspan4156" style="">传感器脏污检测</tspan></tspan></text></g></g><g id="SvgjsG4157" transform="translate(423.7641380319541,194.19860371675628)"><path id="SvgjsPath4158" d="M 0 4Q 0 0 4 0L 121 0Q 125 0 125 4L 125 26Q 125 30 121 30L 4 30Q 0 30 0 26Z" stroke="rgba(33,41,48,1)" stroke-width="1.5" fill-opacity="1" fill="#ffffff"></path><g id="SvgjsG4159"><text id="SvgjsText4160" font-family="&quot;Microsoft YaHei&quot;, 微软雅黑, Arial" text-anchor="middle" font-size="13px" width="105px" fill="#000000" font-weight="400" align="middle" lineHeight="125%" anchor="middle" family="&quot;Microsoft YaHei&quot;, 微软雅黑, Arial" size="13px" weight="400" font-style="" opacity="1" y="4.375" transform="rotate(0)"><tspan id="SvgjsTspan4161" dy="16.25" x="62.5"><tspan id="SvgjsTspan4162" style="">传感器自检</tspan></tspan></text></g></g><g id="SvgjsG4163" transform="translate(169.8686940675904,382.03845673864294)"><path id="SvgjsPath4164" d="M 0 4Q 0 0 4 0L 121 0Q 125 0 125 4L 125 26Q 125 30 121 30L 4 30Q 0 30 0 26Z" stroke="rgba(33,41,48,1)" stroke-width="1.5" fill-opacity="1" fill="#ffffff"></path><g id="SvgjsG4165"><text id="SvgjsText4166" font-family="&quot;Microsoft YaHei&quot;, 微软雅黑, Arial" text-anchor="middle" font-size="13px" width="105px" fill="#323232" font-weight="400" align="middle" lineHeight="125%" anchor="middle" family="&quot;Microsoft YaHei&quot;, 微软雅黑, Arial" size="13px" weight="400" font-style="" opacity="1" y="4.375" transform="rotate(0)"><tspan id="SvgjsTspan4167" dy="16.25" x="62.5"><tspan id="SvgjsTspan4168" style="">ESP8266</tspan></tspan></text></g></g><g id="SvgjsG4169" transform="translate(305.13130593241,382.03845673864294)"><path id="SvgjsPath4170" d="M 0 4Q 0 0 4 0L 121 0Q 125 0 125 4L 125 26Q 125 30 121 30L 4 30Q 0 30 0 26Z" stroke="rgba(33,41,48,1)" stroke-width="1.5" fill-opacity="1" fill="#ffffff"></path><g id="SvgjsG4171"><text id="SvgjsText4172" font-family="&quot;Microsoft YaHei&quot;, 微软雅黑, Arial" text-anchor="middle" font-size="13px" width="105px" fill="#323232" font-weight="400" align="middle" lineHeight="125%" anchor="middle" family="&quot;Microsoft YaHei&quot;, 微软雅黑, Arial" size="13px" weight="400" font-style="" opacity="1" y="4.375" transform="rotate(0)"><tspan id="SvgjsTspan4173" dy="16.25" x="62.5"><tspan id="SvgjsTspan4174" style="">ESP32</tspan></tspan></text></g></g><g id="SvgjsG4175" transform="translate(439.6688755986878,382.03845673864294)"><path id="SvgjsPath4176" d="M 0 4Q 0 0 4 0L 121 0Q 125 0 125 4L 125 26Q 125 30 121 30L 4 30Q 0 30 0 26Z" stroke="rgba(33,41,48,1)" stroke-width="1.5" fill-opacity="1" fill="#ffffff"></path><g id="SvgjsG4177"><text id="SvgjsText4178" font-family="&quot;Microsoft YaHei&quot;, 微软雅黑, Arial" text-anchor="middle" font-size="13px" width="105px" fill="#323232" font-weight="400" align="middle" lineHeight="125%" anchor="middle" family="&quot;Microsoft YaHei&quot;, 微软雅黑, Arial" size="13px" weight="400" font-style="" opacity="1" y="4.375" transform="rotate(0)"><tspan id="SvgjsTspan4179" dy="16.25" x="62.5"><tspan id="SvgjsTspan4180" style="">... ...</tspan></tspan></text></g></g><g id="SvgjsG4181" transform="translate(25,455.2275891731708)"><path id="SvgjsPath4182" d="M 0 4Q 0 0 4 0L 546 0Q 550 0 550 4L 550 46.253Q 550 50.253 546 50.253L 4 50.253Q 0 50.253 0 46.253Z" stroke="none" fill-opacity="1" fill="#aeaef5"></path><g id="SvgjsG4183"><text id="SvgjsText4184" font-family="&quot;Microsoft YaHei&quot;, 微软雅黑, Arial" text-anchor="start" font-size="13px" width="530px" fill="#000000" font-weight="400" align="middle" lineHeight="125%" anchor="start" family="&quot;Microsoft YaHei&quot;, 微软雅黑, Arial" size="13px" weight="400" font-style="" opacity="1" y="14.5015" transform="rotate(0)"><tspan id="SvgjsTspan4185" dy="16.25" x="10"><tspan id="SvgjsTspan4186" style="">           外围硬件</tspan></tspan></text></g></g><g id="SvgjsG4187" transform="translate(169.8686940675904,465.3813118621789)"><path id="SvgjsPath4188" d="M 0 4Q 0 0 4 0L 121 0Q 125 0 125 4L 125 26Q 125 30 121 30L 4 30Q 0 30 0 26Z" stroke="rgba(33,41,48,1)" stroke-width="1.5" fill-opacity="1" fill="#ffffff"></path><g id="SvgjsG4189"><text id="SvgjsText4190" font-family="&quot;Microsoft YaHei&quot;, 微软雅黑, Arial" text-anchor="middle" font-size="13px" width="105px" fill="#323232" font-weight="400" align="middle" lineHeight="125%" anchor="middle" family="&quot;Microsoft YaHei&quot;, 微软雅黑, Arial" size="13px" weight="400" font-style="" opacity="1" y="4.375" transform="rotate(0)"><tspan id="SvgjsTspan4191" dy="16.25" x="62.5"><tspan id="SvgjsTspan4192" style="">Switch</tspan></tspan></text></g></g><g id="SvgjsG4193" transform="translate(305.13130593240993,465.3813118621789)"><path id="SvgjsPath4194" d="M 0 4Q 0 0 4 0L 121 0Q 125 0 125 4L 125 26Q 125 30 121 30L 4 30Q 0 30 0 26Z" stroke="rgba(33,41,48,1)" stroke-width="1.5" fill-opacity="1" fill="#ffffff"></path><g id="SvgjsG4195"><text id="SvgjsText4196" font-family="&quot;Microsoft YaHei&quot;, 微软雅黑, Arial" text-anchor="middle" font-size="13px" width="105px" fill="#323232" font-weight="400" align="middle" lineHeight="125%" anchor="middle" family="&quot;Microsoft YaHei&quot;, 微软雅黑, Arial" size="13px" weight="400" font-style="" opacity="1" y="4.375" transform="rotate(0)"><tspan id="SvgjsTspan4197" dy="16.25" x="62.5"><tspan id="SvgjsTspan4198" style="">VL530LX</tspan></tspan></text></g></g><g id="SvgjsG4199" transform="translate(439.66887559868786,465.3813118621789)"><path id="SvgjsPath4200" d="M 0 4Q 0 0 4 0L 121 0Q 125 0 125 4L 125 26Q 125 30 121 30L 4 30Q 0 30 0 26Z" stroke="rgba(33,41,48,1)" stroke-width="1.5" fill-opacity="1" fill="#ffffff"></path><g id="SvgjsG4201"><text id="SvgjsText4202" font-family="&quot;Microsoft YaHei&quot;, 微软雅黑, Arial" text-anchor="middle" font-size="13px" width="105px" fill="#323232" font-weight="400" align="middle" lineHeight="125%" anchor="middle" family="&quot;Microsoft YaHei&quot;, 微软雅黑, Arial" size="13px" weight="400" font-style="" opacity="1" y="4.375" transform="rotate(0)"><tspan id="SvgjsTspan4203" dy="16.25" x="62.5"><tspan id="SvgjsTspan4204" style="">74HC138</tspan></tspan></text></g></g><g id="SvgjsG4205"><path id="SvgjsPath4206" d="M300 424.1150517091139L300 438.69632044114235L300 438.69632044114235L300 453.27758917317084" stroke="#323232" stroke-width="1.5" fill="none" marker-start="url(#SvgjsMarker4207)" marker-end="url(#SvgjsMarker4209)"></path></g><g id="SvgjsG4211"></g><g id="normal_brand" transform="translate(235.00000000000006,289.2402945865854)"><text id="SvgjsText4213" font-family="Helvetica, Arial, sans-serif" style="transform:rotate(-30deg);opacity: 0.09; color:#aaa; font-family: Microsoft Yahei;"><tspan id="SvgjsTspan4214" font-size="26" dy="0" x="0"></tspan></text></g></svg>